<svg
    xmlns="http://www.w3.org/2000/svg"
    viewBox="0 -0.5 8 8"
    shapeRendering="crispEdges"
>
    <path stroke="white" d="M2 0h1" />
    <path stroke="white" d="M3 0h1M4 1h1M4 2h1M1 5h1M3 6h1" />
    <path stroke="white" d="M4 0h1M2 1h1M4 5h1M4 6h1" />
    <path stroke="white" d="M5 0h1M3 2h1M4 4h2" />
    <path stroke="gray" d="M3 1h1" />
    <path stroke="gray" d="M5 1h1" />
    <path stroke="white" d="M2 2h1M2 7h1M5 7h1" />
    <path stroke="white" d="M5 2h1M3 3h1M3 5h1" />
    <path stroke="white" d="M4 3h1" />
    <path stroke="white" d="M6 3h1M2 4h2" />
</svg>